<svg width="612" height="612" viewBox="0 0 612 612" fill="none" xmlns="http://www.w3.org/2000/svg">
<path d="M612 463.781C612 393.439 562.982 334.582 497.25 319.402C486.487 316.92 475.299 315.562 463.781 315.562C460.563 315.562 457.384 315.701 454.219 315.902C382.39 320.482 324.494 376.193 316.529 447.047C315.912 452.541 315.562 458.12 315.562 463.781C315.562 474.443 316.715 484.833 318.852 494.859C333.139 561.792 392.584 612 463.781 612C545.641 612 612 545.641 612 463.781ZM463.781 561.797C409.648 561.797 365.765 517.914 365.765 463.781C365.765 409.648 409.648 365.766 463.781 365.766C517.914 365.766 561.797 409.648 561.797 463.781C561.797 517.914 517.914 561.797 463.781 561.797Z" fill="white"/>
<path d="M482.906 396.844H449.438V449.438H396.844V482.906H482.906V449.438V396.844Z" fill="white"/>
<path d="M109.968 0C100.74 0 93.2344 7.507 93.2344 16.734V54.984V95.625C93.2344 104.853 100.74 112.359 109.968 112.359H124.312C133.54 112.359 141.046 104.852 141.046 95.625V54.984V16.734C141.046 7.507 133.54 0 124.311 0H109.968Z" fill="white"/>
<path d="M372.937 0C363.709 0 356.203 7.507 356.203 16.734V54.984V95.625C356.203 104.853 363.71 112.359 372.937 112.359H387.281C396.509 112.359 404.015 104.852 404.015 95.625V54.984V16.734C404.015 7.507 396.508 0 387.28 0H372.937Z" fill="white"/>
<path d="M38.25 494.859H274.922C272.589 483.259 271.35 471.273 271.35 459C271.35 454.979 271.527 451.001 271.785 447.047H71.719C55.874 447.047 43.031 434.204 43.031 418.359V188.859H454.219V277.566C457.384 277.403 460.573 277.313 463.781 277.313C475.218 277.313 486.391 278.422 497.25 280.454V93.2344C497.25 72.1104 480.124 54.9844 459 54.9844H427.922V95.6254C427.922 118.035 409.692 136.266 387.281 136.266H372.937C350.527 136.266 332.296 118.035 332.296 95.6254V54.9844H164.953V95.6254C164.953 118.035 146.722 136.266 124.312 136.266H109.968C87.558 136.266 69.327 118.035 69.327 95.6254V54.9844H38.25C17.126 54.9844 0 72.1114 0 93.2344V456.609C0 477.733 17.126 494.859 38.25 494.859Z" fill="white"/>
<path d="M134.774 298.531C155.736 298.531 172.728 281.538 172.728 260.577C172.728 239.616 155.736 222.623 134.774 222.623C113.813 222.623 96.8203 239.616 96.8203 260.577C96.8203 281.538 113.813 298.531 134.774 298.531Z" fill="white"/>
<path d="M248.626 298.531C269.587 298.531 286.58 281.538 286.58 260.577C286.58 239.616 269.587 222.623 248.626 222.623C227.664 222.623 210.672 239.616 210.672 260.577C210.672 281.538 227.664 298.531 248.626 298.531Z" fill="white"/>
<path d="M362.477 298.531C383.439 298.531 400.431 281.538 400.431 260.577C400.431 239.616 383.439 222.623 362.477 222.623C341.516 222.623 324.523 239.616 324.523 260.577C324.523 281.538 341.516 298.531 362.477 298.531Z" fill="white"/>
<path d="M248.625 413.281C269.586 413.281 286.578 396.289 286.578 375.328C286.578 354.367 269.586 337.375 248.625 337.375C227.664 337.375 210.672 354.367 210.672 375.328C210.672 396.289 227.664 413.281 248.625 413.281Z" fill="white"/>
<path d="M134.773 413.281C155.734 413.281 172.726 396.289 172.726 375.328C172.726 354.367 155.734 337.375 134.773 337.375C113.812 337.375 96.8203 354.367 96.8203 375.328C96.8203 396.289 113.812 413.281 134.773 413.281Z" fill="white"/>
</svg>
