<svg width="31" height="57" viewBox="0 0 31 57" fill="none" xmlns="http://www.w3.org/2000/svg">
<path d="M28.4222 57C27.8431 56.9976 27.2886 56.7649 26.8803 56.3532L0.635972 30.0412C0.228636 29.6304 0 29.0747 0 28.4954C0 27.9161 0.228636 27.3604 0.635972 26.9496L26.8803 0.63761C27.2901 0.229225 27.8444 0 28.4222 0C28.9999 0 29.5542 0.229225 29.964 0.63761C30.3713 1.04843 30.6 1.60417 30.6 2.18344C30.6 2.76271 30.3713 3.31844 29.964 3.72926L5.27247 28.4954L29.964 53.2615C30.268 53.5681 30.4748 53.958 30.5585 54.3821C30.6421 54.8062 30.5988 55.2457 30.434 55.6452C30.2693 56.0447 29.9904 56.3865 29.6324 56.6275C29.2744 56.8686 28.8534 56.9982 28.4222 57Z" fill="black"/>
</svg>
