<svg width="650" height="649" viewBox="0 0 650 649" fill="none" xmlns="http://www.w3.org/2000/svg">
<path d="M325 0C145.795 0 0 145.865 0 325.156C0 504.447 145.795 649 325 649C504.205 649 650 504.447 650 325.156C650 145.865 504.205 0 325 0ZM346.667 334.672C346.667 346.638 336.96 356.349 325 356.349H151.667C139.707 356.349 130 346.638 130 334.672C130 322.706 139.707 312.995 151.667 312.995H303.333V74.5474C303.333 62.5816 313.04 52.8703 325 52.8703C336.96 52.8703 346.667 62.5816 346.667 74.5474V334.672Z" fill="white"/>
</svg>
