<svg width="448" height="448" viewBox="0 0 448 448" fill="none" xmlns="http://www.w3.org/2000/svg">
<path d="M358.902 447.991C339.382 447.991 311.962 440.931 270.902 417.991C220.972 389.991 182.352 364.141 132.692 314.611C84.8118 266.761 61.5118 235.781 28.9018 176.441C-7.9382 109.441 -1.6582 74.3207 5.3618 59.3107C13.7218 41.3707 26.0618 30.6407 42.0118 19.9907C51.0713 14.0551 60.6585 8.9669 70.6518 4.79072C71.6518 4.36072 72.5818 3.95072 73.4118 3.58072C78.3618 1.35072 85.8618 -2.01928 95.3618 1.58072C101.702 3.96072 107.362 8.83072 116.222 17.5807C134.392 35.5007 159.222 75.4107 168.382 95.0107C174.532 108.221 178.602 116.941 178.612 126.721C178.612 138.171 172.852 147.001 165.862 156.531C164.552 158.321 163.252 160.031 161.992 161.691C154.382 171.691 152.712 174.581 153.812 179.741C156.042 190.111 172.672 220.981 200.002 248.251C227.332 275.521 257.312 291.101 267.722 293.321C273.102 294.471 276.052 292.731 286.372 284.851C287.852 283.721 289.372 282.551 290.962 281.381C301.622 273.451 310.042 267.841 321.222 267.841H321.282C331.012 267.841 339.342 272.061 353.142 279.021C371.142 288.101 412.252 312.611 430.282 330.801C439.052 339.641 443.942 345.281 446.332 351.611C449.932 361.141 446.542 368.611 444.332 373.611C443.962 374.441 443.552 375.351 443.122 376.361C438.913 386.336 433.794 395.903 427.832 404.941C417.202 420.841 406.432 433.151 388.452 441.521C379.219 445.888 369.115 448.1 358.902 447.991Z" fill="#DDC05F"/>
</svg>
