<svg width="500" height="500" viewBox="0 0 500 500" fill="none" xmlns="http://www.w3.org/2000/svg">
<path d="M145.629 0.835939C160.512 4.55668 169.56 19.6377 165.84 34.5206L54.7312 478.953C51.0108 493.836 35.9295 502.886 21.0468 499.164C6.16386 495.444 -2.8848 480.364 0.835939 465.481L111.944 21.0468C115.665 6.16386 130.746 -2.8848 145.629 0.835939ZM388.055 21.0468L499.164 465.481C502.886 480.364 493.836 495.444 478.953 499.164C464.07 502.886 448.99 493.836 445.27 478.953L334.162 34.5206C330.44 19.6377 339.49 4.55668 354.373 0.835939C369.256 -2.8848 384.336 6.16386 388.055 21.0468ZM250 388.886C264.246 388.886 275.986 399.608 277.591 413.423L277.778 416.663V472.217C277.778 487.558 265.342 499.994 250 499.994C235.755 499.994 224.015 489.271 222.41 475.457L222.223 472.217V416.663C222.223 401.322 234.659 388.886 250 388.886ZM250 194.446C265.342 194.446 277.778 206.882 277.778 222.223V277.777C277.778 293.119 265.342 305.554 250 305.554C234.659 305.554 222.223 293.119 222.223 277.777V222.223C222.223 206.882 234.659 194.446 250 194.446ZM250 0.00651501C264.246 0.00651501 275.986 10.7297 277.591 24.5442L277.778 27.7836V83.3377C277.778 98.6787 265.342 111.115 250 111.115C235.755 111.115 224.015 100.392 222.41 86.5772L222.223 83.3377V27.7836C222.223 12.4429 234.659 0.00651501 250 0.00651501Z" fill="white"/>
</svg>
