<svg width="713" height="431" viewBox="0 0 713 431" fill="none" xmlns="http://www.w3.org/2000/svg">
<path d="M143.512 289.105C104.33 289.105 72.5664 320.87 72.5664 360.053C72.5664 399.235 104.33 431 143.512 431C182.696 431 214.459 399.235 214.459 360.053C214.459 320.87 182.696 289.105 143.512 289.105ZM143.512 389.994C127.002 389.994 113.571 376.562 113.571 360.053C113.571 343.543 127.002 330.11 143.512 330.11C160.022 330.11 173.455 343.543 173.455 360.053C173.455 376.562 160.022 389.994 143.512 389.994Z" fill="white"/>
<path d="M569.484 289.105C530.301 289.105 498.537 320.87 498.537 360.053C498.537 399.235 530.301 431 569.484 431C608.667 431 640.43 399.235 640.43 360.053C640.43 320.87 608.667 289.105 569.484 289.105ZM569.484 389.994C552.975 389.994 539.542 376.562 539.542 360.053C539.542 343.543 552.975 330.11 569.484 330.11C585.994 330.11 599.425 343.543 599.425 360.053C599.425 376.562 585.994 389.994 569.484 389.994Z" fill="white"/>
<path d="M699.751 178.54L637.453 149.831L568.946 12.6051L548.565 0H22.7804L0 22.7804V350.052L22.7804 372.833H51.1283C50.2626 367.722 49.7873 362.481 49.7873 357.129C49.7873 305.448 91.8323 263.403 143.513 263.403C195.194 263.403 237.241 305.45 237.241 357.129C237.241 362.48 236.766 367.724 235.9 372.833H477.1C476.234 367.722 475.759 362.481 475.759 357.129C475.759 305.448 517.806 263.403 569.487 263.403C621.166 263.403 663.213 305.45 663.213 357.129C663.213 362.48 662.739 367.724 661.872 372.833H690.22L713 350.052V199.23L699.751 178.54ZM169.319 167.029L89.7182 167.137V71.8918H169.319V167.029ZM315.116 167.029L235.516 167.137V71.8918H315.116V167.029V167.029ZM385.866 167.14V71.8918H505.31L552.778 166.971L385.866 167.14Z" fill="white"/>
</svg>
