<svg width="302" height="309" viewBox="0 0 302 309" fill="none" xmlns="http://www.w3.org/2000/svg">
<path d="M20.4508 289.893L34.4508 224.893C16.4567 196.512 9.43714 162.539 14.7091 129.35C19.9812 96.1615 37.1824 66.0367 63.0856 44.6281C88.9888 23.2195 121.814 11.9985 155.402 13.0703C188.99 14.142 221.032 27.433 245.518 50.4494C270.004 73.4659 285.249 104.626 288.395 138.084C291.54 171.541 282.369 204.997 262.602 232.173C242.835 259.35 213.831 278.38 181.031 285.693C148.231 293.006 113.89 288.099 84.4508 271.893L20.4508 289.893Z" fill="#25D366" stroke="white" stroke-width="26"/>
<path d="M205.452 169.893C202.452 167.893 199.452 166.893 196.452 170.893L184.452 186.893C181.452 188.893 179.452 189.893 175.452 187.893C160.452 179.893 139.452 170.893 121.452 140.893C120.452 136.893 122.452 134.893 124.452 132.893L133.452 118.893C135.452 116.893 134.452 114.893 133.452 112.893L121.452 83.8931C118.452 75.8931 115.452 76.8931 112.452 76.8931H104.452C102.452 76.8931 98.4517 77.8931 94.4517 81.8931C72.4517 103.893 81.4517 134.893 97.4517 154.893C100.452 158.893 120.452 194.893 163.452 213.893C195.452 227.893 202.452 225.893 211.452 223.893C222.452 222.893 233.452 213.893 238.452 204.893C239.452 201.893 244.452 188.893 240.452 186.893" fill="white"/>
</svg>
