<?xml version="1.0" encoding="UTF-8"?>
<svg id="Layer_2" data-name="Layer 2" xmlns="http://www.w3.org/2000/svg" xmlns:xlink="http://www.w3.org/1999/xlink" viewBox="0 0 1155 324">
  <defs>
    <style>
      .cls-1 {
        fill: url(#_1);
      }

      .cls-2 {
        fill: url(#_14);
      }

      .cls-3 {
        fill: url(#_1-5);
      }

      .cls-4 {
        fill: url(#_1-2);
      }

      .cls-5 {
        fill: url(#_1-4);
      }

      .cls-6 {
        fill: url(#_1-3);
      }
    </style>
    <linearGradient id="_14" data-name="14" x1="0" y1="162" x2="1155" y2="162" gradientUnits="userSpaceOnUse">
      <stop offset="0" stop-color="#b3861b"/>
      <stop offset=".26" stop-color="#a06c08"/>
      <stop offset=".42" stop-color="#996200"/>
      <stop offset=".51" stop-color="#9d6704"/>
      <stop offset=".62" stop-color="#a97712"/>
      <stop offset=".75" stop-color="#bd9129"/>
      <stop offset=".89" stop-color="#d9b549"/>
      <stop offset="1" stop-color="#f4d968"/>
    </linearGradient>
    <linearGradient id="_1" data-name="1" x1="7.98" y1="161.66" x2="1147.15" y2="161.66" gradientUnits="userSpaceOnUse">
      <stop offset="0" stop-color="#eece5c"/>
      <stop offset=".02" stop-color="#e9c858"/>
      <stop offset=".1" stop-color="#d0a944"/>
      <stop offset=".18" stop-color="#be9335"/>
      <stop offset=".26" stop-color="#b3852c"/>
      <stop offset=".33" stop-color="#b0812a"/>
      <stop offset=".44" stop-color="#bb9037"/>
      <stop offset=".66" stop-color="#d8b95a"/>
      <stop offset=".71" stop-color="#e0c564"/>
      <stop offset=".76" stop-color="#ddc05e"/>
      <stop offset=".83" stop-color="#d4b34e"/>
      <stop offset=".91" stop-color="#c69d33"/>
      <stop offset=".99" stop-color="#b37e0e"/>
      <stop offset="1" stop-color="#b07908"/>
    </linearGradient>
    <linearGradient id="_1-2" data-name="1" x1="81.24" y1="162.24" x2="179.98" y2="162.24" xlink:href="#_1"/>
    <linearGradient id="_1-3" data-name="1" x1="178.38" y1="161.17" x2="297.97" y2="161.17" xlink:href="#_1"/>
    <linearGradient id="_1-4" data-name="1" x1="288.35" y1="162.06" x2="404.73" y2="162.06" xlink:href="#_1"/>
    <linearGradient id="_1-5" data-name="1" x1="406.16" y1="162.15" x2="452.68" y2="162.15" xlink:href="#_1"/>
  </defs>
  <g id="Layer_1-2" data-name="Layer 1">
    <rect class="cls-2" x="0" width="1155" height="324"/>
    <g>
      <rect class="cls-1" x="7.98" y="8.66" width="1139.18" height="306"/>
      <path d="M650.01,314.66H7.98V8.66H505.12l144.9,306Z"/>
    </g>
    <g>
      <path d="M829.16,131.6c0,1.55-.71,2.32-2.14,2.32s-2.44-1.54-3.03-4.63c-.24-2.14-.48-4.28-.71-6.42-.83-4.28-2.2-7.9-4.1-10.87-2.5-3.92-6.59-6.42-12.3-7.49-3.68-.71-6.66-1.01-8.91-.89-5.59,.16-8.97,.28-10.16,.36v107.64c0,4.29,1.13,6.96,3.39,8.03,1.19,.6,4.51,.96,9.98,1.07,1.43,.11,2.14,.62,2.14,1.51,0,1.01-.95,1.51-2.85,1.51-.95,0-1.78-.06-2.5-.18-7.13-.24-12.18-.36-15.15-.36-3.92,0-7.61,.09-11.05,.27-3.45,.18-7.84,.27-13.19,.27-2.73,0-4.1-.48-4.1-1.43,0-1.07,2.55-1.67,7.66-1.79,3.68,0,6.06-.77,7.13-2.32,.59-.95,.89-3.39,.89-7.32V103.98c-11.76,.12-19.07,.71-21.92,1.78-7.49,2.73-11.88,10.04-13.19,21.92-.36,3.56-1.19,5.35-2.5,5.35-1.43,0-2.14-1.25-2.14-3.74,0-1.31,.06-2.61,.18-3.92l.36-4.1c.36-5.46,.89-12.65,1.6-21.57h8.02l36.36,.53c4.28,.12,10.93,.12,19.96,0l29.59-.53c.24,6.66,1.01,16.52,2.32,29.59,0,.36,.06,.8,.18,1.34,.12,.53,.18,.86,.18,.98Z"/>
      <path d="M864.45,215.28c0,2.64-.92,4.89-2.76,6.75-1.84,1.86-4.07,2.79-6.68,2.79s-5.02-.93-6.86-2.79c-1.84-1.86-2.76-4.17-2.76-6.93s.92-4.88,2.76-6.75c1.84-1.86,4.13-2.79,6.86-2.79s4.84,.93,6.68,2.79c1.84,1.86,2.76,4.17,2.76,6.92Z"/>
      <path d="M986.54,183.82c0-.24-.12,1.37-.36,4.81-.48,6.89-.71,13.55-.71,19.96,0,.71,.12,2.17,.36,4.37,.24,2.2,.36,4.84,.36,7.93v1.6c0,1.54-.48,2.32-1.43,2.32s-1.78-.89-2.5-2.67c-1.67-3.92-3.33-6.47-4.99-7.66-8.56,7.49-18.83,11.23-30.83,11.23-17.47,0-31.93-6.09-43.4-18.27-11.47-12.18-17.2-27.54-17.2-46.07s5.26-33.89,15.77-45.72c10.52-11.82,24.09-17.73,40.73-17.73,6.06,0,10.9,.51,14.53,1.51,3.62,1.01,8.11,3.06,13.46,6.15,2.61,1.55,4.57,2.32,5.88,2.32,1.07,0,2.08-.95,3.03-2.85,1.54-3.33,2.79-4.99,3.74-4.99s1.43,.48,1.43,1.43c0,.48-.12,1.25-.36,2.32-1.31,5.7-1.96,16.4-1.96,32.08,0,2.26-.18,3.56-.53,3.92-.36,.36-.83,.53-1.43,.53-1.19,0-1.96-1.13-2.32-3.39-1.55-9.5-3.74-16.58-6.59-21.21-5.82-9.5-14.97-14.26-27.45-14.26-9.62,0-17.23,3.21-22.81,9.62-10.1,11.53-15.15,28.4-15.15,50.62,0,19.85,4.16,35.23,12.48,46.16,7.25,9.51,16.87,14.26,28.87,14.26,6.18,0,11.82-1.51,16.93-4.54,5.11-3.03,9.03-7.16,11.76-12.39,3.09-6.06,5.29-12.65,6.59-19.78,.47-2.85,1.25-4.28,2.32-4.28,1.19,0,1.78,.89,1.78,2.67Z"/>
      <path d="M1027,215.28c0,2.64-.92,4.89-2.76,6.75-1.84,1.86-4.07,2.79-6.68,2.79s-5.02-.93-6.86-2.79c-1.84-1.86-2.76-4.17-2.76-6.93s.92-4.88,2.76-6.75c1.84-1.86,4.13-2.79,6.86-2.79s4.84,.93,6.68,2.79c1.84,1.86,2.76,4.17,2.76,6.92Z"/>
    </g>
    <g>
      <path class="cls-4" d="M179.98,132.12c0,1.55-.71,2.32-2.14,2.32s-2.44-1.54-3.03-4.63c-.24-2.14-.48-4.28-.71-6.42-.83-4.28-2.2-7.9-4.1-10.87-2.5-3.92-6.59-6.42-12.3-7.49-3.68-.71-6.66-1.01-8.91-.89-5.59,.16-8.97,.28-10.16,.36v107.64c0,4.29,1.13,6.96,3.39,8.03,1.19,.6,4.51,.96,9.98,1.07,1.43,.11,2.14,.62,2.14,1.51,0,1.01-.95,1.51-2.85,1.51-.95,0-1.78-.06-2.5-.18-7.13-.24-12.18-.36-15.15-.36-3.92,0-7.61,.09-11.05,.27-3.45,.18-7.84,.27-13.19,.27-2.73,0-4.1-.48-4.1-1.43,0-1.07,2.55-1.67,7.66-1.79,3.68,0,6.06-.77,7.13-2.32,.59-.95,.89-3.39,.89-7.32V104.49c-11.76,.12-19.07,.71-21.92,1.78-7.49,2.73-11.88,10.04-13.19,21.92-.36,3.56-1.19,5.35-2.5,5.35-1.43,0-2.14-1.25-2.14-3.74,0-1.31,.06-2.61,.18-3.92l.36-4.1c.36-5.46,.89-12.65,1.6-21.57h8.02l36.36,.53c4.28,.12,10.93,.12,19.96,0l29.59-.53c.24,6.66,1.01,16.52,2.32,29.59,0,.36,.06,.8,.18,1.34,.12,.53,.18,.86,.18,.98Z"/>
      <path class="cls-6" d="M297.97,222.92c0,1.01-.89,1.52-2.67,1.52-1.19,0-2.26-.06-3.21-.18l-22.64-.71-22.64,.71c-.83,.12-1.72,.18-2.67,.18-2.38,0-3.56-.62-3.56-1.87,0-1.37,1.6-2.06,4.81-2.06,10.45-.12,15.68-1.16,15.68-3.14,0-.11-.12-.58-.36-1.4l-1.46-4.71-.91-2.49c-1.07-3.69-3.68-11.83-7.83-24.44h-38.1c-7.12,19.01-10.68,29.94-10.68,32.79,0,1.67,.71,2.67,2.14,3.03,.36,.12,3.33,.36,8.91,.71,3.44,.12,5.17,.71,5.17,1.78,0,1.19-1.55,1.78-4.63,1.78-5.47,0-11.82-.24-19.07-.71-1.78-.12-3.63-.18-5.53-.18s-3.74,.2-5.53,.59c-.95,.2-1.72,.3-2.32,.3-1.66,0-2.5-.53-2.5-1.61s1.87-1.67,5.61-1.79c3.74-.12,6.44-.68,8.11-1.7,1.66-1.01,2.97-2.95,3.92-5.81,15.28-43.87,27.73-79.11,37.32-105.69,.28-1.4,.83-2.98,1.66-4.73l.76-3.25c.36-1.31,.83-1.96,1.43-1.96,.36,0,.65,.36,.89,1.07,1.54,4.63,5.05,14.32,10.51,29.05,4.28,11.53,14.91,40.46,31.9,86.8,.95,2.69,2.17,4.4,3.65,5.13,1.48,.74,4.54,1.16,9.18,1.28,3.09,.11,4.63,.68,4.63,1.69Zm-48.28-42.68c-1.94-5.35-5.14-14.2-9.62-26.57l-8.56-24.7c-5.01,13.15-11.03,30.24-18.07,51.27h36.25Z"/>
      <path class="cls-5" d="M404.73,222.48c0,1.07-1.67,1.6-4.99,1.6h-50.62c-3.45,0-5.17-.55-5.17-1.67,0-1.03,1.36-1.48,4.1-1.36h8.02c2.85,.12,4.57,.06,5.17-.18,1.78-.36,2.67-1.5,2.67-3.43,0-1.8-1.48-5.71-4.45-11.72l-18.95-38.48-22.47,38.01c-4,6.78-5.99,10.78-5.99,11.99,0,2.18,1.96,3.45,5.88,3.81-.24,0,2.43,0,8.02,0,2.14,0,3.21,.53,3.21,1.6,0,.96-.89,1.43-2.67,1.43h-35.29c-1.9,0-2.85-.53-2.85-1.6s1.55-1.78,4.63-2.14c2.14-.24,4.28-.47,6.42-.71,1.78-.47,3.27-1.24,4.46-2.31,2.26-2.02,9.56-13.65,21.92-34.9,4.48-7.84,8.48-14.66,12.02-20.48l-20.21-38.2c-4.16-7.84-7.04-12.92-8.65-15.24-1.6-2.32-3.3-3.83-5.08-4.55-1.9-.36-5.64-.53-11.23-.53-1.43,0-2.14-.47-2.14-1.43,0-1.31,.95-1.96,2.85-1.96,2.61,0,8.02,.12,16.22,.36,4.04,.12,6.83,.18,8.38,.18,13.9,0,21.57-.18,22.99-.53h2.5c2.5,0,3.74,.48,3.74,1.43,0,1.31-2.1,1.97-6.29,1.97-7.81-.12-11.71,.83-11.71,2.86,0,2.15,6.72,16.1,20.16,41.86,4.83-7.15,10.14-15.65,15.92-25.49,5.78-9.84,8.66-15.36,8.66-16.55,0-1.79-3.27-2.68-9.8-2.68-3.21,0-4.81-.54-4.81-1.61,0-1.19,1.13-1.79,3.39-1.79,1.54,0,3.8,.09,6.77,.27,2.97,.18,5.23,.27,6.77,.27,.59,0,3.36-.09,8.29-.27,4.93-.18,7.81-.27,8.64-.27h1.6c2.02,0,3.03,.51,3.03,1.51s-.77,1.51-2.32,1.51c-.24,0-2.14,.06-5.7,.18-4.04,.12-6.8,.84-8.29,2.15-1.49,1.31-4.01,5.13-7.57,11.45-4.63,8.35-11.41,19.38-20.32,33.09l-1.96,3.04c.83,1.55,8.85,17.17,24.06,46.88,5.23,10.22,8.97,16.31,11.23,18.27,2.26,1.96,6.71,2.88,13.37,2.76,2.97,0,4.46,.53,4.46,1.6Z"/>
      <path class="cls-3" d="M452.68,222.57c0,1.01-.71,1.51-2.14,1.51h-1.78c-.71-.36-8.79-.53-24.24-.53-2.97,0-5.94,.12-8.91,.36-1.55,.12-3.92,.18-7.13,.18-1.55,0-2.32-.53-2.32-1.6,0-.95,1.54-1.48,4.63-1.6,4.75-.12,7.54-.68,8.38-1.7,.83-1.01,1.25-4.44,1.25-10.28V114.87c0-5.84-.3-9.12-.9-9.83-.72-1.19-4.03-1.9-9.93-2.14-2.29-.1-3.43-.52-3.43-1.26,0-.94,.72-1.41,2.16-1.41h24.25c1.79,0,5.27,.06,10.42,.18l6.83-.18c1.92,0,2.87,.51,2.87,1.52,0,.9-2.65,1.46-7.94,1.69-3.01,.12-4.84,.65-5.51,1.6-.66,.95-.99,3.45-.99,7.49v95.18c0,6.77,.3,10.46,.89,11.05,1.31,1.31,5.17,2.08,11.59,2.32,1.31,0,1.96,.51,1.96,1.51Z"/>
    </g>
  </g>
</svg>